<?xml version="1.0" standalone="no"?>
<!DOCTYPE svg PUBLIC "-//W3C//DTD SVG 20010904//EN"
 "http://www.w3.org/TR/2001/REC-SVG-20010904/DTD/svg10.dtd">
<svg version="1.0" xmlns="http://www.w3.org/2000/svg"
 width="652.000000pt" height="514.000000pt" viewBox="0 0 652.000000 514.000000"
 preserveAspectRatio="xMidYMid meet">

<g transform="translate(0.000000,514.000000) scale(0.100000,-0.100000)"
fill="#000000" stroke="none">
<path d="M3265 4068 c-52 -27 -299 -168 -580 -331 -170 -99 -421 -244 -557
-321 l-247 -141 -1 -292 0 -292 33 -17 c33 -17 384 -217 702 -401 66 -38 199
-114 295 -168 96 -54 213 -120 259 -147 l84 -48 31 19 c83 51 280 165 561 326
171 98 327 189 348 202 28 18 39 20 42 10 3 -7 4 -84 3 -172 l-3 -159 -460
-275 c-254 -152 -475 -286 -491 -298 l-31 -22 -349 200 c-480 276 -1013 579
-1019 579 -3 0 -5 -92 -5 -205 l0 -204 43 -24 c23 -14 251 -143 507 -288 256
-145 545 -309 643 -365 l178 -102 142 83 c78 45 219 126 312 180 94 54 244
142 335 195 91 54 226 132 300 175 74 43 159 92 188 109 l52 30 0 573 c0 384
-3 573 -10 573 -6 0 -119 -62 -253 -139 -553 -317 -1058 -601 -1067 -601 -9 0
-129 68 -410 232 -160 93 -288 168 -450 261 -85 49 -161 94 -167 99 -9 7 -13
39 -13 92 l1 81 326 185 c666 378 724 410 736 410 6 0 73 -35 147 -78 189
-109 200 -116 200 -123 0 -3 -176 -111 -391 -240 -264 -158 -387 -236 -377
-242 101 -60 332 -187 340 -187 10 0 252 136 523 295 50 29 215 123 368 210
243 137 276 159 260 169 -10 7 -128 75 -263 151 -186 105 -556 316 -790 450
-3 2 -14 -1 -25 -7z"/>
</g>
</svg>
